<svg xmlns="http://www.w3.org/2000/svg" width="1480" height="1200" viewBox="0 0 1480 1200" fill="none">
  <defs>
    <filter id="paperShadow" x="-10%" y="-10%" width="120%" height="120%">
      <feDropShadow dx="0" dy="12" stdDeviation="18" flood-color="#0f172a" flood-opacity="0.08"/>
    </filter>
    <linearGradient id="paperBg" x1="0" y1="0" x2="1" y2="1">
      <stop offset="0%" stop-color="#fffdf8"/>
      <stop offset="100%" stop-color="#f8fbff"/>
    </linearGradient>
  </defs>
  <rect width="1480" height="1200" fill="url(#paperBg)" rx="28"/>
  <g filter="url(#paperShadow)"><rect x="18" y="18" width="1424" height="1110" rx="22" fill="#fffdfa"/></g>
  <text x="58" y="74" fill="#0f172a" font-size="35" font-family="Virgil, 'Comic Sans MS', 'Bradley Hand', cursive" font-weight="700" transform="rotate(-0.9 58 74)">Homelab Topology</text>
  <text x="58" y="108" fill="#475569" font-size="18" font-family="Virgil, 'Comic Sans MS', 'Bradley Hand', cursive" transform="rotate(-0.4 58 108)">Excalidraw-style sketch render linked from the site.</text>
  <rect x="990" y="56" width="430" height="225" rx="20" fill="#fffdfa"/>
  <path d="M 1009.8 57.6 Q 1322.5 59.4 1399.1 54.5 Q 1421.3 102.7 1419.6 75.0 Q 1422.8 230.0 1419.0 260.3 Q 1087.9 281.1 1010.2 279.0 Q 991.2 227.7 989.8 258.7 Q 993.7 102.3 1009.8 57.6 Z" stroke="#cbd5e1" stroke-width="2.0" fill="none" opacity="0.92" stroke-linecap="round" stroke-linejoin="round"/>
  <path d="M 1007.6 55.8 Q 1323.0 58.1 1399.9 54.2 Q 1422.5 107.1 1421.1 78.0 Q 1421.0 235.4 1422.1 260.1 Q 1086.4 281.2 1007.6 282.7 Q 992.4 233.7 991.2 262.9 Q 986.6 103.3 1007.6 55.8 Z" stroke="#cbd5e1" stroke-width="1.3" fill="none" opacity="0.5" stroke-linecap="round" stroke-linejoin="round"/>
  <text x="1012" y="86" fill="#0f172a" font-size="20" font-family="Virgil, 'Comic Sans MS', 'Bradley Hand', cursive" font-weight="700">VLAN Split</text>
  <line x1="1010" y1="98" x2="1400" y2="98" stroke="#e2e8f0" stroke-width="1.2" stroke-linecap="round"/>
  <rect x="1010" y="102" width="30" height="18" rx="7" fill="#f8fafc"/>
  <path d="M 1014.7 101.2 Q 1031.6 100.5 1031.1 102.0 Q 1039.1 108.2 1041.8 106.6 Q 1038.9 115.1 1040.0 115.1 Q 1013.9 116.3 1016.7 121.6 Q 1008.1 112.2 1010.5 114.5 Q 1011.1 104.2 1014.7 101.2 Z" stroke="#334155" stroke-width="2.0" fill="none" opacity="0.94" stroke-linecap="round" stroke-linejoin="round"/>
  <path d="M 1015.8 103.3 Q 1035.5 104.7 1030.9 102.7 Q 1040.6 107.7 1039.0 109.7 Q 1043.5 116.8 1039.2 112.1 Q 1015.3 123.6 1016.4 118.9 Q 1008.2 115.8 1009.8 114.2 Q 1009.3 108.4 1015.8 103.3 Z" stroke="#334155" stroke-width="1.2" fill="none" opacity="0.55" stroke-linecap="round" stroke-linejoin="round"/>
  <text x="1056" y="115" fill="#1f2937" font-size="14" font-family="Virgil, 'Comic Sans MS', 'Bradley Hand', cursive" font-weight="700">VLAN10 Trusted</text>
  <text x="1180" y="115" fill="#64748b" font-size="12.5" font-family="Virgil, 'Comic Sans MS', 'Bradley Hand', cursive">Trusted user devices</text>
  <rect x="1010" y="131" width="30" height="18" rx="7" fill="#ecfeff"/>
  <path d="M 1018.4 131.1 Q 1030.7 127.0 1031.7 131.8 Q 1036.1 134.4 1041.0 138.3 Q 1039.0 145.5 1040.9 143.5 Q 1019.8 146.4 1018.5 149.0 Q 1009.2 146.2 1008.4 143.9 Q 1008.5 132.6 1018.4 131.1 Z" stroke="#0891b2" stroke-width="2.0" fill="none" opacity="0.94" stroke-linecap="round" stroke-linejoin="round"/>
  <path d="M 1015.2 128.9 Q 1031.1 133.9 1035.3 130.2 Q 1041.4 131.2 1037.6 137.2 Q 1042.0 148.0 1041.4 140.4 Q 1019.5 150.5 1015.6 147.1 Q 1009.3 148.5 1009.4 142.7 Q 1008.6 132.1 1015.2 128.9 Z" stroke="#0891b2" stroke-width="1.2" fill="none" opacity="0.55" stroke-linecap="round" stroke-linejoin="round"/>
  <text x="1056" y="144" fill="#1f2937" font-size="14" font-family="Virgil, 'Comic Sans MS', 'Bradley Hand', cursive" font-weight="700">VLAN20 Servers</text>
  <text x="1180" y="144" fill="#64748b" font-size="12.5" font-family="Virgil, 'Comic Sans MS', 'Bradley Hand', cursive">Hypervisor and core services</text>
  <rect x="1010" y="160" width="30" height="18" rx="7" fill="#eef2ff"/>
  <path d="M 1016.1 162.1 Q 1035.9 160.6 1035.3 161.6 Q 1037.5 161.7 1039.4 168.9 Q 1036.9 171.9 1039.5 171.5 Q 1014.2 174.8 1015.3 178.8 Q 1007.9 170.4 1012.2 171.9 Q 1011.6 165.1 1016.1 162.1 Z" stroke="#4f46e5" stroke-width="2.0" fill="none" opacity="0.94" stroke-linecap="round" stroke-linejoin="round"/>
  <path d="M 1017.2 158.2 Q 1030.5 163.8 1031.1 161.3 Q 1040.4 160.6 1038.9 168.9 Q 1038.1 173.5 1039.1 172.2 Q 1017.3 174.6 1017.6 180.4 Q 1010.8 176.0 1011.6 170.1 Q 1013.6 165.8 1017.2 158.2 Z" stroke="#4f46e5" stroke-width="1.2" fill="none" opacity="0.55" stroke-linecap="round" stroke-linejoin="round"/>
  <text x="1056" y="173" fill="#1f2937" font-size="14" font-family="Virgil, 'Comic Sans MS', 'Bradley Hand', cursive" font-weight="700">VLAN30 Mgmt</text>
  <text x="1180" y="173" fill="#64748b" font-size="12.5" font-family="Virgil, 'Comic Sans MS', 'Bradley Hand', cursive">Network and infra management</text>
  <rect x="1010" y="189" width="30" height="18" rx="7" fill="#fefce8"/>
  <path d="M 1018.4 188.7 Q 1034.6 190.8 1034.7 187.4 Q 1038.8 192.5 1039.3 197.9 Q 1043.6 200.4 1038.6 200.9 Q 1012.8 204.6 1015.6 208.8 Q 1013.6 207.0 1008.0 201.5 Q 1012.8 191.8 1018.4 188.7 Z" stroke="#ca8a04" stroke-width="2.0" fill="none" opacity="0.94" stroke-linecap="round" stroke-linejoin="round"/>
  <path d="M 1017.7 187.3 Q 1030.5 185.0 1031.2 187.6 Q 1042.8 193.9 1038.4 194.6 Q 1042.0 206.1 1040.7 198.5 Q 1017.7 208.1 1016.5 208.4 Q 1009.8 204.0 1008.5 201.4 Q 1009.0 194.7 1017.7 187.3 Z" stroke="#ca8a04" stroke-width="1.2" fill="none" opacity="0.55" stroke-linecap="round" stroke-linejoin="round"/>
  <text x="1056" y="202" fill="#1f2937" font-size="14" font-family="Virgil, 'Comic Sans MS', 'Bradley Hand', cursive" font-weight="700">VLAN40 Guest</text>
  <text x="1180" y="202" fill="#64748b" font-size="12.5" font-family="Virgil, 'Comic Sans MS', 'Bradley Hand', cursive">Guest wireless</text>
  <rect x="1010" y="218" width="30" height="18" rx="7" fill="#ecfdf5"/>
  <path d="M 1017.4 216.4 Q 1034.2 218.2 1034.1 219.5 Q 1040.2 219.9 1041.5 225.5 Q 1038.4 233.4 1041.8 229.8 Q 1018.9 233.4 1017.7 234.3 Q 1008.9 235.6 1007.8 229.0 Q 1013.6 221.1 1017.4 216.4 Z" stroke="#16a34a" stroke-width="2.0" fill="none" opacity="0.94" stroke-linecap="round" stroke-linejoin="round"/>
  <path d="M 1016.5 217.9 Q 1032.1 215.2 1035.5 219.7 Q 1040.4 220.0 1039.7 223.2 Q 1043.4 236.0 1041.9 228.6 Q 1018.8 232.8 1018.4 237.1 Q 1013.4 233.4 1010.2 227.2 Q 1007.5 219.4 1016.5 217.9 Z" stroke="#16a34a" stroke-width="1.2" fill="none" opacity="0.55" stroke-linecap="round" stroke-linejoin="round"/>
  <text x="1056" y="231" fill="#1f2937" font-size="14" font-family="Virgil, 'Comic Sans MS', 'Bradley Hand', cursive" font-weight="700">VLAN50 IoT</text>
  <text x="1180" y="231" fill="#64748b" font-size="12.5" font-family="Virgil, 'Comic Sans MS', 'Bradley Hand', cursive">IoT and untrusted devices</text>
  <text x="1010" y="269" fill="#64748b" font-size="11.5" font-family="Virgil, 'Comic Sans MS', 'Bradley Hand', cursive">AP mgmt on VLAN30; SSIDs carry VLAN10/40/50.</text>
  <path d="M 559.0 196.3 L 539.9 194.4 L 442.9 196.6 L 441.0 386.2 L 338.8 382.1 L 319.8 384.0" stroke="#4b5563" stroke-width="2.3" stroke-linecap="round" fill="none" opacity="0.9"/>
  <path d="M 561.2 194.5 L 541.2 197.3 L 441.4 194.6 L 439.6 381.3 L 337.8 383.0 L 319.5 382.3" stroke="#4b5563" stroke-width="1.7" stroke-linecap="round" fill="none" opacity="0.55"/>
  <polyline points="330.5,378.1 321.4,382.0 330.1,389.3" stroke="#4b5563" stroke-width="2" stroke-linecap="round" stroke-linejoin="round" fill="none" opacity="0.85"/>
  <path d="M 319.3 408.7 L 339.0 406.9 L 395.7 407.7 L 397.2 396.0 L 451.7 394.8 L 470.9 393.4" stroke="#4b5563" stroke-width="2.3" stroke-linecap="round" fill="none" opacity="0.9"/>
  <path d="M 318.6 406.7 L 338.7 409.5 L 394.7 404.8 L 393.3 396.6 L 450.6 394.3 L 470.7 394.1" stroke="#4b5563" stroke-width="1.7" stroke-linecap="round" fill="none" opacity="0.55"/>
  <polyline points="458.3,400.6 468.2,393.3 458.5,390.8" stroke="#4b5563" stroke-width="2" stroke-linecap="round" stroke-linejoin="round" fill="none" opacity="0.85"/>
  <path d="M 711.9 396.0 L 730.1 395.4 L 804.8 394.7 L 802.6 375.6 L 884.0 378.8 L 899.2 377.8" stroke="#4b5563" stroke-width="2.3" stroke-linecap="round" fill="none" opacity="0.9"/>
  <path d="M 708.5 394.8 L 727.5 393.0 L 806.3 397.4 L 805.3 377.3 L 882.5 377.2 L 898.6 378.3" stroke="#4b5563" stroke-width="1.7" stroke-linecap="round" fill="none" opacity="0.55"/>
  <polyline points="889.2,383.3 899.8,379.0 887.6,372.5" stroke="#4b5563" stroke-width="2" stroke-linecap="round" stroke-linejoin="round" fill="none" opacity="0.85"/>
  <path d="M 898.3 394.0 L 881.8 394.7 L 587.1 393.1 L 587.8 675.6 L 310.0 674.0 L 289.8 676.0" stroke="#4b5563" stroke-width="2.3" stroke-linecap="round" fill="none" opacity="0.9"/>
  <path d="M 901.4 394.9 L 883.7 395.2 L 584.9 392.0 L 588.0 675.2 L 308.1 674.0 L 289.8 676.3" stroke="#4b5563" stroke-width="1.7" stroke-linecap="round" fill="none" opacity="0.55"/>
  <polyline points="301.4,670.8 288.6,675.6 302.4,679.1" stroke="#4b5563" stroke-width="2" stroke-linecap="round" stroke-linejoin="round" fill="none" opacity="0.85"/>
  <path d="M 901.3 412.8 L 884.5 414.8 L 796.5 414.8 L 795.6 664.9 L 686.0 665.2 L 671.3 667.9" stroke="#4b5563" stroke-width="2.3" stroke-linecap="round" fill="none" opacity="0.9"/>
  <path d="M 901.2 412.0 L 883.9 409.7 L 796.2 409.8 L 795.8 667.9 L 688.0 667.1 L 669.4 668.4" stroke="#4b5563" stroke-width="1.7" stroke-linecap="round" fill="none" opacity="0.55"/>
  <polyline points="679.2,660.8 670.3,667.7 680.5,671.6" stroke="#4b5563" stroke-width="2" stroke-linecap="round" stroke-linejoin="round" fill="none" opacity="0.85"/>
  <path d="M 1031.0 450.9 L 1030.9 470.7 L 1032.7 527.0 L 937.3 523.1 L 936.2 580.4 L 934.8 598.6" stroke="#4b5563" stroke-width="2.3" stroke-linecap="round" fill="none" opacity="0.9"/>
  <path d="M 1029.3 448.8 L 1031.7 469.4 L 1028.2 525.6 L 937.4 525.8 L 932.5 584.1 L 934.2 601.2" stroke="#4b5563" stroke-width="1.7" stroke-linecap="round" fill="none" opacity="0.55"/>
  <polyline points="929.5,588.6 935.4,601.1 941.0,590.8" stroke="#4b5563" stroke-width="2" stroke-linecap="round" stroke-linejoin="round" fill="none" opacity="0.85"/>
  <path d="M 545.7 451.6 L 544.5 465.5 L 542.2 667.7 L 179.0 668.5 L 181.7 922.6 L 180.9 941.4" stroke="#4b5563" stroke-width="2.3" stroke-linecap="round" fill="none" opacity="0.9"/>
  <path d="M 543.3 449.5 L 544.7 470.2 L 544.9 667.5 L 180.5 666.9 L 180.4 924.0 L 181.7 940.4" stroke="#4b5563" stroke-width="1.7" stroke-linecap="round" fill="none" opacity="0.55"/>
  <polyline points="175.1,929.2 182.5,941.1 184.8,929.1" stroke="#4b5563" stroke-width="2" stroke-linecap="round" stroke-linejoin="round" fill="none" opacity="0.85"/>
  <path d="M 575.3 449.1 L 573.0 467.3 L 575.9 685.6 L 552.5 684.6 L 549.8 923.6 L 551.3 941.1" stroke="#4b5563" stroke-width="2.3" stroke-linecap="round" fill="none" opacity="0.9"/>
  <path d="M 572.9 448.1 L 574.7 470.1 L 571.9 683.2 L 548.6 685.8 L 552.9 920.0 L 549.9 938.9" stroke="#4b5563" stroke-width="1.7" stroke-linecap="round" fill="none" opacity="0.55"/>
  <polyline points="544.1,930.2 549.7,941.6 556.9,930.0" stroke="#4b5563" stroke-width="2" stroke-linecap="round" stroke-linejoin="round" fill="none" opacity="0.85"/>
  <path d="M 605.3 451.6 L 606.2 468.7 L 602.5 706.0 L 890.6 703.3 L 891.1 920.3 L 888.8 939.9" stroke="#4b5563" stroke-width="2.3" stroke-linecap="round" fill="none" opacity="0.9"/>
  <path d="M 605.0 450.4 L 602.9 467.3 L 602.8 704.7 L 890.1 703.0 L 887.2 921.2 L 889.0 938.3" stroke="#4b5563" stroke-width="1.7" stroke-linecap="round" fill="none" opacity="0.55"/>
  <polyline points="885.9,928.3 889.0,939.4 894.1,929.0" stroke="#4b5563" stroke-width="2" stroke-linecap="round" stroke-linejoin="round" fill="none" opacity="0.85"/>
  <path d="M 635.3 449.9 L 635.0 465.3 L 637.0 722.7 L 1167.0 722.9 L 1167.8 924.0 L 1169.3 938.5" stroke="#4b5563" stroke-width="2.3" stroke-linecap="round" fill="none" opacity="0.9"/>
  <path d="M 635.1 449.7 L 633.1 466.3 L 635.7 720.2 L 1167.8 720.7 L 1171.7 924.4 L 1171.9 941.6" stroke="#4b5563" stroke-width="1.7" stroke-linecap="round" fill="none" opacity="0.55"/>
  <polyline points="1164.5,928.7 1169.8,938.8 1176.6,929.7" stroke="#4b5563" stroke-width="2" stroke-linecap="round" stroke-linejoin="round" fill="none" opacity="0.85"/>
  <path d="M 164.4 748.9 L 164.3 768.4 L 163.6 847.4 L 216.2 844.0 L 217.6 921.0 L 220.9 941.0" stroke="#4b5563" stroke-width="2.3" stroke-linecap="round" fill="none" opacity="0.9"/>
  <path d="M 165.5 751.4 L 163.7 771.0 L 164.1 843.1 L 217.5 842.6 L 221.3 924.1 L 219.8 940.3" stroke="#4b5563" stroke-width="1.7" stroke-linecap="round" fill="none" opacity="0.55"/>
  <polyline points="214.3,928.5 217.6,940.7 223.7,930.2" stroke="#4b5563" stroke-width="2" stroke-linecap="round" stroke-linejoin="round" fill="none" opacity="0.85"/>
  <path d="M 809.4 673.1 L 791.3 673.5 L 739.3 676.9 L 741.5 702.9 L 688.5 700.3 L 669.1 703.7" stroke="#4b5563" stroke-width="2.3" stroke-linecap="round" fill="none" opacity="0.9"/>
  <path d="M 810.6 674.7 L 791.0 674.3 L 738.7 677.7 L 739.5 701.2 L 689.4 702.6 L 671.8 702.4" stroke="#4b5563" stroke-width="1.7" stroke-linecap="round" fill="none" opacity="0.55"/>
  <polyline points="679.2,699.0 670.4,704.8 680.2,708.2" stroke="#4b5563" stroke-width="2" stroke-linecap="round" stroke-linejoin="round" fill="none" opacity="0.85"/>
  <rect x="560" y="150" width="240" height="90" rx="22" fill="#f8fafc"/>
  <path d="M 582.5 150.0 Q 746.2 150.6 777.9 149.5 Q 798.9 171.5 802.2 172.6 Q 803.6 223.8 800.1 219.8 Q 612.0 243.6 582.2 240.3 Q 557.5 219.2 562.1 220.3 Q 563.5 166.5 582.5 150.0 Z" stroke="#64748b" stroke-width="2.2" fill="none" opacity="0.96" stroke-linecap="round" stroke-linejoin="round"/>
  <path d="M 582.2 148.9 Q 749.3 153.2 777.8 149.1 Q 796.5 167.5 798.6 169.5 Q 803.3 216.6 799.4 216.4 Q 616.0 236.2 583.8 239.7 Q 562.7 223.3 559.8 218.7 Q 563.4 168.5 582.2 148.9 Z" stroke="#64748b" stroke-width="1.5" fill="none" opacity="0.58" stroke-linecap="round" stroke-linejoin="round"/>
  <text x="680.0" y="181.0" fill="#1f2937" font-size="18" font-family="Virgil, 'Comic Sans MS', 'Bradley Hand', cursive" font-weight="700" text-anchor="middle" transform="rotate(0.62 680.0 181.0)">ISP</text>
  <text x="680.0" y="209.0" fill="#1f2937" font-size="15" font-family="Virgil, 'Comic Sans MS', 'Bradley Hand', cursive" font-weight="500" text-anchor="middle" transform="rotate(-0.72 680.0 209.0)">Internet uplink</text>
  <rect x="60" y="340" width="260" height="110" rx="22" fill="#fff1f2"/>
  <path d="M 82.1 338.7 Q 263.9 342.9 298.7 340.3 Q 318.7 362.8 318.1 363.5 Q 316.4 424.9 321.6 429.8 Q 117.3 453.7 83.9 449.8 Q 63.2 426.2 60.1 426.3 Q 60.2 365.0 82.1 338.7 Z" stroke="#be123c" stroke-width="2.2" fill="none" opacity="0.96" stroke-linecap="round" stroke-linejoin="round"/>
  <path d="M 84.0 339.7 Q 262.9 338.2 295.6 340.9 Q 321.7 364.8 320.7 362.1 Q 316.3 425.5 319.5 428.2 Q 113.5 451.6 83.9 450.7 Q 62.3 422.0 57.6 426.2 Q 60.6 367.1 84.0 339.7 Z" stroke="#be123c" stroke-width="1.5" fill="none" opacity="0.58" stroke-linecap="round" stroke-linejoin="round"/>
  <text x="190.0" y="367.0" fill="#1f2937" font-size="18" font-family="Virgil, 'Comic Sans MS', 'Bradley Hand', cursive" font-weight="700" text-anchor="middle" transform="rotate(0.40 190.0 367.0)">OPNsense</text>
  <text x="190.0" y="395.0" fill="#1f2937" font-size="15" font-family="Virgil, 'Comic Sans MS', 'Bradley Hand', cursive" font-weight="500" text-anchor="middle" transform="rotate(0.30 190.0 395.0)">Firewall, DNS, routing</text>
  <text x="190.0" y="423.0" fill="#1f2937" font-size="15" font-family="Virgil, 'Comic Sans MS', 'Bradley Hand', cursive" font-weight="500" text-anchor="middle" transform="rotate(-0.70 190.0 423.0)">VLAN boundaries</text>
  <rect x="470" y="340" width="240" height="110" rx="22" fill="#eff6ff"/>
  <path d="M 489.9 337.9 Q 660.6 336.8 687.5 337.5 Q 706.9 364.4 712.2 363.5 Q 712.0 425.7 708.3 428.4 Q 524.2 446.7 492.5 451.3 Q 471.2 421.9 472.2 429.4 Q 471.7 367.9 489.9 337.9 Z" stroke="#2563eb" stroke-width="2.2" fill="none" opacity="0.96" stroke-linecap="round" stroke-linejoin="round"/>
  <path d="M 490.8 338.7 Q 655.5 338.5 689.3 341.8 Q 708.2 367.1 710.8 363.1 Q 712.2 428.5 709.5 426.1 Q 519.6 450.6 492.4 449.9 Q 471.2 425.2 468.9 425.8 Q 467.2 366.0 490.8 338.7 Z" stroke="#2563eb" stroke-width="1.5" fill="none" opacity="0.58" stroke-linecap="round" stroke-linejoin="round"/>
  <text x="590.0" y="367.0" fill="#1f2937" font-size="18" font-family="Virgil, 'Comic Sans MS', 'Bradley Hand', cursive" font-weight="700" text-anchor="middle" transform="rotate(0.33 590.0 367.0)">Switch</text>
  <text x="590.0" y="395.0" fill="#1f2937" font-size="15" font-family="Virgil, 'Comic Sans MS', 'Bradley Hand', cursive" font-weight="500" text-anchor="middle" transform="rotate(-0.94 590.0 395.0)">Core fabric</text>
  <text x="590.0" y="423.0" fill="#1f2937" font-size="15" font-family="Virgil, 'Comic Sans MS', 'Bradley Hand', cursive" font-weight="500" text-anchor="middle" transform="rotate(-1.05 590.0 423.0)">Tagged VLAN trunk</text>
  <rect x="900" y="340" width="260" height="110" rx="22" fill="#f5f3ff"/>
  <path d="M 923.8 339.9 Q 1104.7 339.7 1135.8 342.3 Q 1157.3 360.4 1157.7 360.1 Q 1163.4 425.3 1162.1 427.4 Q 958.5 447.1 922.7 448.6 Q 896.1 429.1 901.2 426.0 Q 897.5 363.0 923.8 339.9 Z" stroke="#7c3aed" stroke-width="2.2" fill="none" opacity="0.96" stroke-linecap="round" stroke-linejoin="round"/>
  <path d="M 920.3 341.4 Q 1098.8 341.2 1139.2 341.3 Q 1158.0 360.2 1158.6 360.3 Q 1163.7 427.2 1157.9 426.3 Q 959.9 448.9 923.1 450.2 Q 897.9 422.3 900.1 428.5 Q 899.7 362.7 920.3 341.4 Z" stroke="#7c3aed" stroke-width="1.5" fill="none" opacity="0.58" stroke-linecap="round" stroke-linejoin="round"/>
  <text x="1030.0" y="367.0" fill="#1f2937" font-size="18" font-family="Virgil, 'Comic Sans MS', 'Bradley Hand', cursive" font-weight="700" text-anchor="middle" transform="rotate(0.20 1030.0 367.0)">Proxmox</text>
  <text x="1030.0" y="395.0" fill="#1f2937" font-size="15" font-family="Virgil, 'Comic Sans MS', 'Bradley Hand', cursive" font-weight="500" text-anchor="middle" transform="rotate(0.97 1030.0 395.0)">Hypervisor</text>
  <text x="1030.0" y="423.0" fill="#1f2937" font-size="15" font-family="Virgil, 'Comic Sans MS', 'Bradley Hand', cursive" font-weight="500" text-anchor="middle" transform="rotate(0.47 1030.0 423.0)">VM + LXC host</text>
  <rect x="40" y="600" width="250" height="150" rx="22" fill="#eef2ff"/>
  <path d="M 60.1 598.4 Q 234.7 597.9 269.4 598.7 Q 288.5 630.1 292.3 620.2 Q 289.1 719.5 290.5 728.2 Q 95.7 746.5 59.7 749.7 Q 42.5 713.3 40.2 727.4 Q 42.1 632.4 60.1 598.4 Z" stroke="#4f46e5" stroke-width="2.2" fill="none" opacity="0.96" stroke-linecap="round" stroke-linejoin="round"/>
  <path d="M 60.5 601.9 Q 237.4 602.1 268.2 601.4 Q 292.5 629.1 290.1 621.3 Q 291.2 717.1 290.2 725.6 Q 92.8 753.8 61.5 748.2 Q 43.6 717.6 41.7 727.8 Q 36.0 636.6 60.5 601.9 Z" stroke="#4f46e5" stroke-width="1.5" fill="none" opacity="0.58" stroke-linecap="round" stroke-linejoin="round"/>
  <text x="165.0" y="647.0" fill="#1f2937" font-size="18" font-family="Virgil, 'Comic Sans MS', 'Bradley Hand', cursive" font-weight="700" text-anchor="middle" transform="rotate(1.01 165.0 647.0)">VLAN30_MGMT</text>
  <text x="165.0" y="675.0" fill="#1f2937" font-size="15" font-family="Virgil, 'Comic Sans MS', 'Bradley Hand', cursive" font-weight="500" text-anchor="middle" transform="rotate(-0.32 165.0 675.0)">UniFi VM</text>
  <text x="165.0" y="703.0" fill="#1f2937" font-size="15" font-family="Virgil, 'Comic Sans MS', 'Bradley Hand', cursive" font-weight="500" text-anchor="middle" transform="rotate(-0.34 165.0 703.0)">UniFi Controller</text>
  <rect x="370" y="600" width="300" height="170" rx="22" fill="#ecfeff"/>
  <path d="M 391.1 599.4 Q 602.7 598.0 645.6 597.6 Q 673.7 634.9 669.4 621.1 Q 671.5 735.5 669.4 748.7 Q 438.5 771.6 391.3 770.4 Q 370.0 732.3 372.1 748.6 Q 366.5 635.5 391.1 599.4 Z" stroke="#0891b2" stroke-width="2.2" fill="none" opacity="0.96" stroke-linecap="round" stroke-linejoin="round"/>
  <path d="M 393.1 598.4 Q 600.2 600.2 648.0 601.4 Q 666.2 639.4 671.8 623.0 Q 673.7 731.3 670.4 748.2 Q 437.5 767.6 392.7 769.5 Q 372.2 736.5 369.4 746.0 Q 366.4 637.6 393.1 598.4 Z" stroke="#0891b2" stroke-width="1.5" fill="none" opacity="0.58" stroke-linecap="round" stroke-linejoin="round"/>
  <text x="520.0" y="643.0" fill="#1f2937" font-size="18" font-family="Virgil, 'Comic Sans MS', 'Bradley Hand', cursive" font-weight="700" text-anchor="middle" transform="rotate(0.20 520.0 643.0)">VLAN20_SERVERS</text>
  <text x="520.0" y="671.0" fill="#1f2937" font-size="15" font-family="Virgil, 'Comic Sans MS', 'Bradley Hand', cursive" font-weight="500" text-anchor="middle" transform="rotate(-0.64 520.0 671.0)">Shared VM</text>
  <text x="520.0" y="699.0" fill="#1f2937" font-size="15" font-family="Virgil, 'Comic Sans MS', 'Bradley Hand', cursive" font-weight="500" text-anchor="middle" transform="rotate(0.07 520.0 699.0)">Caddy + Homepage +</text>
  <text x="520.0" y="727.0" fill="#1f2937" font-size="15" font-family="Virgil, 'Comic Sans MS', 'Bradley Hand', cursive" font-weight="500" text-anchor="middle" transform="rotate(0.85 520.0 727.0)">Vaultwarden</text>
  <rect x="810" y="600" width="250" height="150" rx="22" fill="#ecfeff"/>
  <path d="M 829.9 602.4 Q 1007.1 602.7 1036.0 599.1 Q 1058.2 631.9 1058.2 621.0 Q 1061.0 718.7 1058.6 729.6 Q 861.3 746.3 830.7 749.9 Q 808.9 718.1 811.1 729.9 Q 812.7 632.8 829.9 602.4 Z" stroke="#0891b2" stroke-width="2.2" fill="none" opacity="0.96" stroke-linecap="round" stroke-linejoin="round"/>
  <path d="M 831.5 598.8 Q 1004.3 596.5 1038.6 598.8 Q 1057.5 634.0 1061.4 623.2 Q 1062.7 717.5 1061.3 728.7 Q 866.4 752.2 833.2 751.2 Q 809.5 718.6 809.1 726.8 Q 808.1 631.9 831.5 598.8 Z" stroke="#0891b2" stroke-width="1.5" fill="none" opacity="0.58" stroke-linecap="round" stroke-linejoin="round"/>
  <text x="935.0" y="647.0" fill="#1f2937" font-size="18" font-family="Virgil, 'Comic Sans MS', 'Bradley Hand', cursive" font-weight="700" text-anchor="middle" transform="rotate(0.65 935.0 647.0)">Monitoring LXC</text>
  <text x="935.0" y="675.0" fill="#1f2937" font-size="15" font-family="Virgil, 'Comic Sans MS', 'Bradley Hand', cursive" font-weight="500" text-anchor="middle" transform="rotate(0.33 935.0 675.0)">on VLAN20_SERVERS</text>
  <text x="935.0" y="703.0" fill="#1f2937" font-size="15" font-family="Virgil, 'Comic Sans MS', 'Bradley Hand', cursive" font-weight="500" text-anchor="middle" transform="rotate(0.66 935.0 703.0)">Uptime Kuma alerts</text>
  <rect x="110" y="940" width="180" height="100" rx="22" fill="#eef2ff"/>
  <path d="M 131.5 939.1 Q 247.1 940.8 265.9 939.6 Q 288.6 960.0 290.0 960.8 Q 286.2 1020.1 288.1 1020.0 Q 149.9 1040.8 131.4 1041.7 Q 106.8 1020.8 111.5 1020.0 Q 106.1 962.2 131.5 939.1 Z" stroke="#4f46e5" stroke-width="2.2" fill="none" opacity="0.96" stroke-linecap="round" stroke-linejoin="round"/>
  <path d="M 130.2 940.4 Q 251.5 939.3 267.3 942.4 Q 288.9 961.5 287.7 959.8 Q 287.3 1020.0 290.1 1019.7 Q 149.6 1041.1 134.1 1038.4 Q 109.6 1020.4 108.6 1018.6 Q 110.6 959.8 130.2 940.4 Z" stroke="#4f46e5" stroke-width="1.5" fill="none" opacity="0.58" stroke-linecap="round" stroke-linejoin="round"/>
  <text x="200.0" y="962.0" fill="#1f2937" font-size="18" font-family="Virgil, 'Comic Sans MS', 'Bradley Hand', cursive" font-weight="700" text-anchor="middle" transform="rotate(0.24 200.0 962.0)">UniFi AP</text>
  <text x="200.0" y="990.0" fill="#1f2937" font-size="15" font-family="Virgil, 'Comic Sans MS', 'Bradley Hand', cursive" font-weight="500" text-anchor="middle" transform="rotate(0.67 200.0 990.0)">Mgmt: VLAN30</text>
  <text x="200.0" y="1018.0" fill="#1f2937" font-size="15" font-family="Virgil, 'Comic Sans MS', 'Bradley Hand', cursive" font-weight="500" text-anchor="middle" transform="rotate(-0.49 200.0 1018.0)">SSIDs: 10/40/50</text>
  <rect x="460" y="940" width="180" height="100" rx="22" fill="#f8fafc"/>
  <path d="M 481.4 942.2 Q 597.2 936.6 616.5 942.1 Q 638.0 961.8 640.7 963.9 Q 639.3 1020.5 638.2 1019.9 Q 496.5 1042.5 484.3 1037.9 Q 461.3 1017.4 460.8 1020.0 Q 456.2 960.9 481.4 942.2 Z" stroke="#334155" stroke-width="2.2" fill="none" opacity="0.96" stroke-linecap="round" stroke-linejoin="round"/>
  <path d="M 480.9 941.2 Q 603.2 939.4 619.7 940.0 Q 636.9 962.8 641.4 961.3 Q 638.4 1020.2 639.4 1017.0 Q 499.8 1042.1 484.4 1038.9 Q 460.5 1021.9 461.4 1015.7 Q 460.9 965.5 480.9 941.2 Z" stroke="#334155" stroke-width="1.5" fill="none" opacity="0.58" stroke-linecap="round" stroke-linejoin="round"/>
  <text x="550.0" y="962.0" fill="#1f2937" font-size="18" font-family="Virgil, 'Comic Sans MS', 'Bradley Hand', cursive" font-weight="700" text-anchor="middle" transform="rotate(-0.06 550.0 962.0)">VLAN10_TRUSTED</text>
  <text x="550.0" y="990.0" fill="#1f2937" font-size="15" font-family="Virgil, 'Comic Sans MS', 'Bradley Hand', cursive" font-weight="500" text-anchor="middle" transform="rotate(0.41 550.0 990.0)">PC</text>
  <text x="550.0" y="1018.0" fill="#1f2937" font-size="15" font-family="Virgil, 'Comic Sans MS', 'Bradley Hand', cursive" font-weight="500" text-anchor="middle" transform="rotate(0.21 550.0 1018.0)">Trusted client</text>
  <rect x="800" y="940" width="180" height="100" rx="22" fill="#fefce8"/>
  <path d="M 822.1 937.7 Q 937.7 941.1 957.5 940.3 Q 976.3 963.1 981.3 960.4 Q 981.6 1021.9 977.7 1017.6 Q 838.8 1039.8 819.9 1042.2 Q 801.4 1016.7 798.8 1019.2 Q 800.4 964.6 822.1 937.7 Z" stroke="#ca8a04" stroke-width="2.2" fill="none" opacity="0.96" stroke-linecap="round" stroke-linejoin="round"/>
  <path d="M 823.3 938.0 Q 939.5 936.4 955.8 937.9 Q 983.2 962.8 981.5 960.5 Q 983.5 1020.9 978.2 1019.8 Q 842.9 1037.6 822.5 1038.0 Q 801.8 1020.3 800.0 1017.3 Q 798.3 960.1 823.3 938.0 Z" stroke="#ca8a04" stroke-width="1.5" fill="none" opacity="0.58" stroke-linecap="round" stroke-linejoin="round"/>
  <text x="890.0" y="976.0" fill="#1f2937" font-size="18" font-family="Virgil, 'Comic Sans MS', 'Bradley Hand', cursive" font-weight="700" text-anchor="middle" transform="rotate(0.15 890.0 976.0)">JetKVM</text>
  <text x="890.0" y="1004.0" fill="#1f2937" font-size="15" font-family="Virgil, 'Comic Sans MS', 'Bradley Hand', cursive" font-weight="500" text-anchor="middle" transform="rotate(-0.08 890.0 1004.0)">Recovery access</text>
  <rect x="1080" y="940" width="180" height="100" rx="22" fill="#ecfeff"/>
  <path d="M 1104.0 939.9 Q 1218.2 936.9 1238.9 942.1 Q 1262.1 960.3 1261.6 963.5 Q 1257.0 1015.1 1258.5 1019.4 Q 1117.4 1043.2 1101.5 1037.9 Q 1077.4 1014.9 1080.1 1018.9 Q 1082.4 959.2 1104.0 939.9 Z" stroke="#0891b2" stroke-width="2.2" fill="none" opacity="0.96" stroke-linecap="round" stroke-linejoin="round"/>
  <path d="M 1102.0 937.6 Q 1219.8 939.8 1239.3 941.3 Q 1258.7 961.0 1258.5 959.7 Q 1263.7 1016.2 1261.7 1018.1 Q 1122.8 1041.2 1104.4 1041.2 Q 1080.9 1021.1 1077.5 1019.4 Q 1081.5 962.1 1102.0 937.6 Z" stroke="#0891b2" stroke-width="1.5" fill="none" opacity="0.58" stroke-linecap="round" stroke-linejoin="round"/>
  <text x="1170.0" y="976.0" fill="#1f2937" font-size="18" font-family="Virgil, 'Comic Sans MS', 'Bradley Hand', cursive" font-weight="700" text-anchor="middle" transform="rotate(-0.94 1170.0 976.0)">NAS</text>
  <text x="1170.0" y="1004.0" fill="#1f2937" font-size="15" font-family="Virgil, 'Comic Sans MS', 'Bradley Hand', cursive" font-weight="500" text-anchor="middle" transform="rotate(0.14 1170.0 1004.0)">Planned on VLAN20</text>
</svg>
